@startuml
skinparam monochrome true
skinparam packageStyle rectangle
skinparam shadowing false

left to right direction

skinparam classAttributeIconSize 0

hide circle
hide methods



class "TaskEntry" {
    -title
    -description
    -urgencyLevel
    -expectedDuration
    -state
    -greenSpace
}


class "GreenSpaceManager"{
        -name
        -email
        -phone

}


class "ToDoList" {
    -entries
}

"GreenSpaceManager" "1" -- "*" "TaskEntry" :  create >
TaskEntry "1" -- "0..*" ToDoList : exists in >

@enduml