@startuml
skinparam monochrome true
skinparam packageStyle rectangle
skinparam shadowing false

'left to right direction

skinparam classAttributeIconSize 0

hide circle
hide methods

'title Domain Model

'class Platform {
'  -description
'}

class HumanResourcesManager {
    name
    email
    phone
}

class Skill {
    name
}
class Organization {
    name
    vatNumber
    website
    phoneNumber
    email
}

class Collaborator {
    name
    birthdate
    admission date
    address
    email
    phone
}

'class User {
'    name
'    email
'    password
'}

'Platform "1" -- "*" Organization : has registered >
'Platform "1" -- "*" Category : defines >
Organization "1" - "*" Collaborator : has >
Organization "1" - "1" HumanResourcesManager : has >
HumanResourcesManager "1" - "*" Collaborator : manages >
HumanResourcesManager "1" -- "*" Skill : registers >
Collaborator "1" -- "*" Skill : has >


@enduml