@startuml
'skinparam monochrome true
skinparam packageStyle rectangle
skinparam shadowing false
skinparam linetype polyline
'skinparam linetype orto

skinparam classAttributeIconSize 0

'left to right direction

class RegisterVehicleCheckupUI{
}


class RegisterVehicleCheckupController{
   +CreateVehicleCheckupController(VehicleRepository)
   +registerVehicleCheckup(vehicle)
 }

class Repositories {
    - Repositories(): Repositories
    + getInstance() : Repositories
    + getVehicleRepository() : Repositories
}


class VehicleRepository {
    + register()
}

class CheckupRepository{
    + registerVehicleCheckup(vehicleList, date)
    + addVehicle()
    + validateVehicle(vehicle)
    }

class  Vehicle{
    -name : String
    +Vehicle()
}



RegisterVehicleCheckupUI .>  RegisterVehicleCheckupController
 RegisterVehicleCheckupController ...r> Repositories : repositories
Repositories ---> "1" VehicleRepository
Repositories -> Repositories : instance
Repositories "1" --> "*" Vehicle

VehicleRepository --> "*" Vehicle
 RegisterVehicleCheckupController ......>  Vehicle : Vehicle
 RegisterVehicleCheckupController ...> "1" VehicleRepository : VehicleRepository
CheckupRepository --> Vehicle : has
@enduml