@startuml
skinparam monochrome true
skinparam packageStyle rectangle
skinparam shadowing false

'left to right direction

skinparam classAttributeIconSize 0

hide circle
hide methods

class Organization {
    name
    vatNumber
    website
    phoneNumber
    email
}

class HumanResourcesManager {
    name
    email
    phone
}

class Collaborator {
    name
    birthdate
    admission date
    address
    email
    phone
}

class ID {
    type
    number
}

class Job {
    name
}

class Skill {
    name
}

Collaborator "1" -- "*" Skill : has >
Collaborator "1" -- "1" Job : has >
Collaborator "1" -- "1" ID : has >
Organization "1" - "1" HumanResourcesManager : has >
HumanResourcesManager "1" -- "*" Skill : registers >
HumanResourcesManager "1" -- "*" Job : registers >
HumanResourcesManager "1" - "*" Collaborator : manages >
@enduml